<svg width="10" height="16" viewBox="0 0 10 16" fill="none" xmlns="http://www.w3.org/2000/svg">
<path fill-rule="evenodd" clip-rule="evenodd" d="M8.3361 15.8162L9.66466 14.4707C9.72216 14.4124 9.7678 14.3429 9.79896 14.2664C9.83011 14.1898 9.84615 14.1077 9.84615 14.0247C9.84615 13.9418 9.83011 13.8596 9.79896 13.7831C9.7678 13.7065 9.72216 13.6371 9.66466 13.5788L4.15985 7.9984L9.66466 2.42082C9.72199 2.36241 9.7675 2.29294 9.79855 2.2164C9.8296 2.13986 9.84558 2.05777 9.84558 1.97486C9.84558 1.89195 9.8296 1.80986 9.79855 1.73333C9.7675 1.65679 9.72199 1.58731 9.66466 1.5289L8.3361 0.183406C8.21806 0.0657892 8.06002 9.53674e-07 7.8955 9.53674e-07C7.73098 9.53674e-07 7.57294 0.0657892 7.4549 0.183406L1.52165 6.19515L1.51084 6.20625L0.180924 7.55314C0.123592 7.61155 0.0780896 7.68102 0.047038 7.75756C0.0159864 7.8341 0 7.91619 0 7.99909C0 8.082 0.0159864 8.16409 0.047038 8.24063C0.0780896 8.31717 0.123592 8.38664 0.180924 8.44505L1.50949 9.79055L1.5203 9.80165L7.45625 15.8162C7.57389 15.934 7.73178 16 7.89617 16C8.06057 16 8.21845 15.934 8.3361 15.8162Z" fill="#2B2A4C"/>
</svg>
