<svg width="44" height="43" viewBox="0 0 44 43" fill="none" xmlns="http://www.w3.org/2000/svg">
<path d="M2 21C2 13.458 2 9.686 4.344 7.344C6.686 5 10.458 5 18 5H26C33.542 5 37.314 5 39.656 7.344C42 9.686 42 13.458 42 21V25C42 32.542 42 36.314 39.656 38.656C37.314 41 33.542 41 26 41H18C10.458 41 6.686 41 4.344 38.656C2 36.314 2 32.542 2 25V21Z" stroke="#2B2A4C" stroke-width="3.5"/>
<path d="M12 5V2M32 5V2M3 15H41" stroke="#2B2A4C" stroke-width="3.5" stroke-linecap="round"/>
<path d="M34 31C34 31.5304 33.7893 32.0391 33.4142 32.4142C33.0391 32.7893 32.5304 33 32 33C31.4696 33 30.9609 32.7893 30.5858 32.4142C30.2107 32.0391 30 31.5304 30 31C30 30.4696 30.2107 29.9609 30.5858 29.5858C30.9609 29.2107 31.4696 29 32 29C32.5304 29 33.0391 29.2107 33.4142 29.5858C33.7893 29.9609 34 30.4696 34 31ZM34 23C34 23.5304 33.7893 24.0391 33.4142 24.4142C33.0391 24.7893 32.5304 25 32 25C31.4696 25 30.9609 24.7893 30.5858 24.4142C30.2107 24.0391 30 23.5304 30 23C30 22.4696 30.2107 21.9609 30.5858 21.5858C30.9609 21.2107 31.4696 21 32 21C32.5304 21 33.0391 21.2107 33.4142 21.5858C33.7893 21.9609 34 22.4696 34 23ZM24 31C24 31.5304 23.7893 32.0391 23.4142 32.4142C23.0391 32.7893 22.5304 33 22 33C21.4696 33 20.9609 32.7893 20.5858 32.4142C20.2107 32.0391 20 31.5304 20 31C20 30.4696 20.2107 29.9609 20.5858 29.5858C20.9609 29.2107 21.4696 29 22 29C22.5304 29 23.0391 29.2107 23.4142 29.5858C23.7893 29.9609 24 30.4696 24 31ZM24 23C24 23.5304 23.7893 24.0391 23.4142 24.4142C23.0391 24.7893 22.5304 25 22 25C21.4696 25 20.9609 24.7893 20.5858 24.4142C20.2107 24.0391 20 23.5304 20 23C20 22.4696 20.2107 21.9609 20.5858 21.5858C20.9609 21.2107 21.4696 21 22 21C22.5304 21 23.0391 21.2107 23.4142 21.5858C23.7893 21.9609 24 22.4696 24 23ZM14 31C14 31.5304 13.7893 32.0391 13.4142 32.4142C13.0391 32.7893 12.5304 33 12 33C11.4696 33 10.9609 32.7893 10.5858 32.4142C10.2107 32.0391 10 31.5304 10 31C10 30.4696 10.2107 29.9609 10.5858 29.5858C10.9609 29.2107 11.4696 29 12 29C12.5304 29 13.0391 29.2107 13.4142 29.5858C13.7893 29.9609 14 30.4696 14 31ZM14 23C14 23.5304 13.7893 24.0391 13.4142 24.4142C13.0391 24.7893 12.5304 25 12 25C11.4696 25 10.9609 24.7893 10.5858 24.4142C10.2107 24.0391 10 23.5304 10 23C10 22.4696 10.2107 21.9609 10.5858 21.5858C10.9609 21.2107 11.4696 21 12 21C12.5304 21 13.0391 21.2107 13.4142 21.5858C13.7893 21.9609 14 22.4696 14 23Z" fill="#B31312"/>
</svg>
