<svg width="30" height="24" viewBox="0 0 30 24" fill="none" xmlns="http://www.w3.org/2000/svg">
<path d="M20.25 5.4375C20.25 4.1943 19.7561 3.00201 18.8771 2.12294C17.998 1.24386 16.8057 0.75 15.5625 0.75H4.6875C3.4443 0.75 2.25201 1.24386 1.37294 2.12294C0.49386 3.00201 0 4.1943 0 5.4375V18.5625C0 19.8057 0.49386 20.998 1.37294 21.8771C2.25201 22.7561 3.4443 23.25 4.6875 23.25H15.5625C16.8057 23.25 17.998 22.7561 18.8771 21.8771C19.7561 20.998 20.25 19.8057 20.25 18.5625V5.4375ZM21.75 16.149L26.9707 20.226C28.2022 21.1875 30 20.31 30 18.7485V5.25225C30 3.69 28.2022 2.81325 26.9707 3.77475L21.75 7.851V16.149Z" fill="#C9D6DF"/>
</svg>
