<svg width="29" height="28" viewBox="0 0 29 28" fill="none" xmlns="http://www.w3.org/2000/svg">
<path d="M19.7891 23.75C18.0059 23.7516 16.2567 23.2627 14.7328 22.3367C13.2089 21.4107 11.9691 20.0834 11.1491 18.5H19.7891L21.2891 15.5H10.1591C10.0841 15.005 10.0391 14.51 10.0391 14C10.0391 13.49 10.0841 12.995 10.1591 12.5H19.7891L21.2891 9.50001H11.1491C11.9705 7.91778 13.2107 6.59147 14.7342 5.6657C16.2578 4.73993 18.0063 4.25023 19.7891 4.25001C22.2041 4.25001 24.4241 5.13501 26.1341 6.60501L28.7891 3.95001C26.3192 1.72621 23.1126 0.497005 19.7891 0.500005C13.9091 0.500005 8.92906 4.26501 7.06906 9.50001H1.78906L0.289062 12.5H6.37906C6.25758 13.4963 6.25758 14.5037 6.37906 15.5H1.78906L0.289062 18.5H7.06906C8.92906 23.735 13.9091 27.5 19.7891 27.5C23.2541 27.5 26.4041 26.195 28.7891 24.05L26.1191 21.395C24.4241 22.865 22.2191 23.75 19.7891 23.75Z" fill="#2B2A4C"/>
</svg>
