<svg width="154" height="66" viewBox="0 0 154 66" fill="none" xmlns="http://www.w3.org/2000/svg">
<g clip-path="url(#clip0_1557_4498)">
<path d="M153.92 53.1797H0.773438V66.0237H153.92V53.1797Z" fill="#B31312"/>
<mask id="mask0_1557_4498" style="mask-type:luminance" maskUnits="userSpaceOnUse" x="0" y="0" width="154" height="66">
<path d="M154 0H0V66H154V0Z" fill="white"/>
</mask>
<g mask="url(#mask0_1557_4498)">
<path d="M142.223 58.7712H140.874V60.6334C140.874 61.3455 140.654 61.8932 140.241 62.2766C139.856 62.6326 139.278 62.7969 138.562 62.7969C137.049 62.7969 136.278 62.0575 136.278 60.6334V55.4027H133.691V56.6077H134.93V60.7704C134.93 61.7562 135.288 62.5231 135.976 63.0708C136.636 63.6185 137.517 63.8923 138.59 63.8923C139.746 63.8923 140.654 63.5911 141.287 63.0434C141.92 62.4957 142.25 61.7289 142.25 60.7704L142.223 58.7712ZM125.738 62.4409C126.041 61.9206 126.206 61.3455 126.206 60.743V55.3753H124.858V60.606C124.858 61.2633 124.665 61.7836 124.28 62.167C123.867 62.5778 123.289 62.7695 122.573 62.7695C121.885 62.7695 121.335 62.5778 120.922 62.2218C120.51 61.8384 120.289 61.2907 120.289 60.606V55.3753H118.886V60.743C118.886 61.6741 119.244 62.4409 119.932 63.016C120.62 63.5637 121.473 63.8376 122.518 63.8376C123.344 63.8376 124.06 63.7006 124.61 63.3994L125.903 64.4127L126.949 63.3994L125.738 62.4409ZM110.795 57.5936H109.447V58.4152C109.447 59.8392 108.676 60.5787 107.162 60.5787C105.649 60.5787 104.851 59.8666 104.851 58.4152V55.3753H103.475V58.5521C103.475 59.5654 103.805 60.3322 104.466 60.8799C105.126 61.4002 106.007 61.6741 107.135 61.6741C107.52 61.6741 107.933 61.5919 108.346 61.455C108.814 61.2907 109.171 61.0716 109.419 60.7977V63.6459H110.768L110.795 57.5936ZM94.8062 62.4409C95.1089 61.9206 95.274 61.3455 95.274 60.743V55.3753H93.9255V60.606C93.9255 61.2633 93.7329 61.7836 93.3476 62.167C92.9348 62.5778 92.3569 62.7695 91.6414 62.7695C90.9534 62.7695 90.403 62.5778 89.9902 62.2218C89.5774 61.8384 89.3573 61.2907 89.3573 60.606V55.3753H88.0088V60.743C88.0088 61.6741 88.3666 62.4409 89.0546 63.016C89.7425 63.5637 90.5956 63.8376 91.6414 63.8376C92.467 63.8376 93.1825 63.7006 93.7329 63.3994L95.0263 64.4127L96.0721 63.3994L94.8062 62.4409ZM80.606 62.5504H79.2851V55.4027H77.9366V58.4426C77.9366 59.894 77.1661 60.606 75.6525 60.606C74.1389 60.606 73.3408 59.894 73.3408 58.4426V57.5936H71.9924V58.5795C71.9924 59.5928 72.3226 60.3596 72.9831 60.9073C73.6435 61.4276 74.5242 61.7015 75.6525 61.7015C76.0378 61.7015 76.4505 61.6193 76.8633 61.4824C77.3312 61.3181 77.6889 61.099 77.9366 60.8525V63.7006H80.6335V62.5504H80.606ZM61.4248 58.9903L59.4434 58.5795C59.1407 58.5247 58.893 58.4152 58.6729 58.2235C58.4527 58.0318 58.3151 57.8127 58.3151 57.5936C58.3151 57.1554 58.5077 56.7994 58.8655 56.5529C59.2232 56.3065 59.7186 56.1969 60.324 56.2243C61.7826 56.2243 62.5256 56.7994 62.5256 57.8948H63.819C63.7915 56.0874 62.5806 55.1563 60.1864 55.1836C59.2232 55.1836 58.4527 55.4301 57.8473 55.9231C57.2693 56.416 56.9666 57.0185 56.9941 57.7579C56.9941 58.2235 57.2143 58.6616 57.6271 59.045C58.0124 59.4011 58.5077 59.6201 59.0581 59.7571L60.9295 60.1405C62.1954 60.4143 62.8283 60.8799 62.8283 61.5372C62.8283 61.9479 62.6082 62.2766 62.1954 62.5231C61.7826 62.7695 61.2047 62.8791 60.4892 62.8791C59.7186 62.8791 59.1132 62.7148 58.6729 62.3861C58.2325 62.0575 58.0399 61.5919 58.0399 60.9894H56.7465C56.7465 61.9206 57.0767 62.6326 57.7922 63.1803C58.4527 63.7006 59.3608 63.9745 60.5167 63.9745C61.5899 63.9745 62.4706 63.728 63.1586 63.2625C63.8465 62.7969 64.1768 62.1944 64.1768 61.455C64.1493 60.1405 63.2411 59.3463 61.4248 58.9903ZM48.3805 62.4409C48.6832 61.9206 48.8483 61.3455 48.8483 60.743V55.3753H47.4999V60.606C47.4999 61.2633 47.3072 61.7836 46.922 62.167C46.5092 62.5778 45.9312 62.7695 45.2157 62.7695C44.5277 62.7695 43.9498 62.5778 43.5646 62.2218C43.1518 61.8384 42.9316 61.2907 42.9316 60.606V55.3753H41.5556V60.743C41.5556 61.6741 41.9134 62.4409 42.6014 63.016C43.2894 63.5637 44.1425 63.8376 45.1882 63.8376C46.0138 63.8376 46.7293 63.7006 47.2797 63.3994L48.5731 64.4127L49.6189 63.3994L48.3805 62.4409ZM33.5749 58.2782C33.5749 57.265 33.2447 56.4982 32.5842 55.9504C31.9513 55.4301 31.0431 55.1562 29.9148 55.1562C28.8415 55.1562 27.9609 55.4301 27.3004 55.9778C26.6124 56.5529 26.2547 57.3197 26.2547 58.2782V63.6459H27.6032V58.4152C27.6032 57.7031 27.8233 57.1554 28.2361 56.772C28.6214 56.416 29.1718 56.2517 29.8873 56.2517C31.4284 56.2517 32.1989 56.9911 32.1989 58.4152V60.8251H33.5474L33.5749 58.2782ZM18.6593 62.5504H14.036V55.4027H12.6875V63.6733H18.6593V62.5504Z" fill="white"/>
<path d="M154.002 45.5476H152.213C152.489 45.1094 152.736 44.6987 153.011 44.2605C153.232 43.9045 153.369 43.6306 153.452 43.4663C153.81 42.4256 154.002 41.3576 154.002 40.2074C154.002 38.5916 153.727 37.2223 153.177 36.0447C152.626 34.8671 151.801 33.9634 150.7 33.3335C149.599 32.7036 148.251 32.375 146.682 32.375C145.609 32.375 144.673 32.5119 143.847 32.8132C143.022 33.1144 142.361 33.4978 141.866 34.0182C141.371 34.5385 140.985 35.0862 140.765 35.7161C140.518 36.3733 140.38 37.0306 140.38 37.7426C140.38 38.5094 140.49 39.1941 140.683 39.8513C140.903 40.5086 141.206 41.0837 141.646 41.604C142.086 42.1244 142.637 42.5078 143.297 42.7816C143.957 43.0555 144.728 43.1924 145.636 43.1924C146.132 43.1924 146.654 43.1377 147.177 43.0281C147.7 42.9186 148.196 42.7543 148.691 42.5352C149.021 41.8779 149.159 41.0016 149.159 39.9335L149.131 39.1667C148.388 39.7144 147.645 39.9883 146.847 39.9883C145.994 39.9883 145.333 39.7692 144.921 39.3584C144.508 38.9476 144.288 38.3999 144.288 37.7426C144.288 37.3592 144.37 37.0306 144.535 36.702C144.701 36.3733 144.976 36.0995 145.361 35.9078C145.746 35.6887 146.242 35.6065 146.847 35.6065C147.618 35.6065 148.333 35.9078 148.994 36.5103C149.654 37.1128 149.957 38.263 149.957 39.9883C149.957 41.3028 149.737 42.3435 149.324 43.1103C148.911 43.8771 148.361 44.4248 147.7 44.7534C147.012 45.0547 146.297 45.1916 145.526 45.1916H141.673V48.3684H154.002V45.5476ZM130.913 36.2912C131.436 35.9352 132.041 35.7709 132.729 35.7709C133.362 35.7709 133.83 35.9352 134.16 36.2638C134.491 36.5924 134.656 36.9484 134.656 37.3318C134.656 38.2356 134.023 38.7011 132.729 38.7011H130.968V41.6588H132.399C132.95 41.6588 133.528 41.7684 134.16 42.0148C134.766 42.2613 135.096 42.7543 135.096 43.5211C135.096 44.0962 134.848 44.5617 134.381 44.863C133.913 45.1642 133.307 45.3285 132.592 45.3285C131.271 45.3285 130.143 44.6713 129.152 43.3567L126.125 45.1642C126.785 46.1227 127.501 46.8621 128.299 47.3551C129.069 47.848 129.812 48.1767 130.5 48.3136C131.188 48.4505 131.959 48.5327 132.812 48.5327C133.995 48.5327 135.014 48.3957 135.867 48.1219C136.72 47.848 137.38 47.4646 137.848 47.0265C138.316 46.5883 138.646 46.0953 138.839 45.6024C139.031 45.1094 139.114 44.5891 139.114 44.0414C139.114 43.2746 138.976 42.6447 138.729 42.097C138.591 41.7957 138.454 41.5493 138.288 41.3576C138.123 41.1385 137.931 40.9468 137.711 40.7825C137.298 40.4538 136.83 40.2074 136.307 40.0157V39.9061C136.857 39.6596 137.408 39.3036 137.876 38.7833C138.316 38.2904 138.564 37.5783 138.564 36.702C138.564 35.9899 138.371 35.3053 137.958 34.6754C137.545 34.0455 136.94 33.5526 136.142 33.1418C135.316 32.7584 134.271 32.5667 132.977 32.5667C132.317 32.5667 131.629 32.6489 130.858 32.8132C130.473 32.8953 130.088 33.0323 129.675 33.224C129.262 33.4157 128.849 33.6621 128.464 33.9634C127.583 34.5933 126.895 35.497 126.345 36.702L129.592 37.9891C129.922 37.2223 130.39 36.6746 130.913 36.2912ZM121.612 41.1933H125.299V37.77H121.612V41.1933ZM116.355 48.204H120.731V32.9227H116.355V48.204ZM113.961 38.8107C113.961 37.907 113.823 37.0032 113.548 36.0995C113.273 35.1957 112.668 34.3742 111.732 33.6621C110.796 32.9501 109.393 32.5941 107.521 32.5941C105.65 32.5941 104.274 32.9501 103.338 33.6895C102.403 34.4289 101.77 35.2505 101.522 36.1543C101.274 37.058 101.109 37.9617 101.109 38.8381V48.204H105.485V38.7285C105.485 36.9211 106.173 36.0447 107.549 36.0447C108.925 36.0447 109.613 36.9484 109.613 38.7285V48.204H113.989L113.961 38.8107Z" fill="#B31312"/>
<path d="M52.9753 44.5079C53.0304 44.3436 53.1129 44.1792 53.168 43.9875C53.4157 43.0838 53.5533 42.1801 53.5533 41.2763V31.9104H49.1776V41.3585C49.1776 43.166 48.4896 44.0423 47.1137 44.0423C45.7377 44.0423 45.0497 43.1386 45.0497 41.3585V31.883H40.6741V41.249C40.6741 42.0979 40.8117 43.0017 41.0868 43.9328C41.362 44.8639 41.9675 45.6855 42.9031 46.3975C43.8663 47.1095 45.2423 47.4929 47.0861 47.4929C47.3889 47.4929 47.6641 47.4929 47.9117 47.4656C48.1594 47.4382 48.352 47.4382 48.5172 47.3834C49.0125 47.4382 49.5629 47.5477 50.1959 47.7394C50.6087 47.849 50.9664 47.9585 51.2966 48.0954C51.6269 48.2324 51.9021 48.3419 52.1773 48.5062L55.0393 45.8224C54.9017 45.7402 54.7641 45.6581 54.654 45.6033C54.544 45.5485 54.3513 45.4664 54.0761 45.3842C53.8009 45.3021 53.5533 45.2199 53.2781 45.1378C53.0304 45.083 52.8377 45.0282 52.6726 45.0008C52.8102 44.8365 52.9203 44.6722 52.9753 44.5079ZM32.941 31.883C31.2348 31.883 29.9964 32.239 29.2809 32.951C28.5379 33.6631 28.1801 34.5394 28.1801 35.5527C28.1801 36.1826 28.2902 36.7303 28.5104 37.2232C28.7305 37.7162 29.0057 38.127 29.391 38.5104C29.7763 38.8938 30.2166 39.3046 30.7395 39.7153L32.3631 40.9477C32.9961 41.4407 33.4639 41.8241 33.7391 42.0705C33.9593 42.317 34.0418 42.5635 34.0418 42.8647C34.0418 43.4398 33.6015 43.7411 32.7484 43.7411H27.9049V47.1643H33.6841C35.5279 47.1643 36.8763 46.8083 37.7019 46.0689C38.5275 45.3295 38.9678 44.4257 38.9678 43.3303C38.9678 42.7278 38.8853 42.1801 38.6926 41.7145C38.5 41.249 38.2523 40.8656 37.9221 40.4822C37.5919 40.1261 37.2341 39.7975 36.8488 39.4963L35.0876 38.2091C34.262 37.634 33.7391 37.1958 33.4914 36.9768C33.2713 36.7303 33.1337 36.4838 33.1337 36.1826C33.1337 35.6075 33.5465 35.3062 34.3996 35.3062H38.8027V31.883H32.941ZM17.7777 37.3875H23.5293V33.9643H17.7777V37.3875ZM26.1162 39.4689C25.8685 38.9485 25.5933 38.4282 25.3181 37.8805C24.7127 38.0448 24.1347 38.2365 23.5293 38.4008C22.7312 38.6473 22.0708 38.9485 21.5479 39.2772C21.8506 39.7153 22.0432 40.1261 22.1533 40.4548C22.2634 40.7834 22.3184 41.112 22.3184 41.4407C22.3184 41.9062 22.1533 42.317 21.8506 42.6456C21.658 42.8373 21.3828 43.029 21.0525 43.166C20.3921 43.4672 19.7041 43.6315 19.0711 43.6315H17.1172V31.7734H12.7691V47.0548H19.8967C21.3828 47.0548 22.5936 46.8083 23.6119 46.2606C24.6026 45.7402 25.3456 45.0282 25.841 44.1519C26.3363 43.2481 26.584 42.2349 26.584 41.112C26.584 40.7012 26.4189 40.1535 26.1162 39.4689ZM2.91708 35.9087C1.9539 37.0041 1.01823 37.7983 0.082559 38.2913C0.0275197 38.3461 0 38.4008 0 38.5104C0 38.7568 0.302716 39.1402 0.963188 39.7153C1.87134 40.5369 2.39421 41.0573 2.55933 41.249C2.66941 41.3585 2.99964 41.7145 3.57756 42.2896C3.90779 42.6182 4.18299 42.9469 4.37563 43.2755C4.56826 43.6041 4.78842 43.9054 4.95354 44.2614C5.11866 44.6174 5.28377 44.9461 5.44889 45.3021C5.61401 45.6581 5.72409 45.9593 5.86169 46.288C5.99929 46.6166 6.08184 46.8905 6.1644 47.1917H10.7327C10.4024 46.0963 9.96212 45.083 9.49428 44.0971C9.02645 43.1112 8.42102 42.1801 7.73302 41.249C7.04503 40.3178 6.35704 39.551 5.64153 38.9212C6.98999 37.4423 7.9807 36.1004 8.58613 34.8407C9.19157 33.5809 9.57684 32.595 9.74196 31.9104H5.06362C4.98106 32.239 4.8985 32.5676 4.78842 32.8689C4.67834 33.1701 4.56826 33.4987 4.40315 33.8548C4.18299 34.3477 3.68763 35.0324 2.91708 35.9087Z" fill="#B31312"/>
<path d="M66.1568 23.585H62.7168V16.5469H57.5156V48.5062H62.7168V28.7884H64.4506C64.7533 26.9261 65.3312 25.1734 66.1568 23.585Z" fill="#2B2A4C"/>
<path d="M98.9316 31.8837C98.9316 31.8563 98.9316 31.8563 98.9316 31.8289L93.868 30.5144C93.923 30.98 93.9505 31.4181 93.9505 31.8837C93.9505 38.292 88.7218 43.4953 82.2822 43.4953C75.8426 43.4953 70.6139 38.292 70.6139 31.8837C70.6139 29.3094 71.467 26.9268 72.898 25.0098L67.8344 23.6953C66.4309 26.1053 65.6328 28.926 65.6328 31.9111C65.6328 41.058 73.0906 48.5069 82.3097 48.5069C91.5288 48.5069 98.9316 41.058 98.9316 31.8837Z" fill="#2B2A4C"/>
<path d="M87.1825 30.6995C87.1825 32.3153 85.8616 33.6298 84.2104 33.6298C82.5592 33.6298 81.2383 32.3153 81.2383 30.6995C81.2383 29.0838 82.5592 27.7692 84.2104 27.7692C85.8616 27.7692 87.1825 29.0838 87.1825 30.6995ZM88.4485 31.658C88.4485 28.2074 85.5864 25.4141 82.0914 25.4141C78.5964 25.4141 75.7344 28.2074 75.7344 31.658C75.7344 35.1087 78.5964 37.902 82.0914 37.902C85.5864 37.902 88.4485 35.1087 88.4485 31.658Z" fill="#2B2A4C"/>
<path d="M88.8326 22.2679L100.198 3.94672C100.941 2.6322 100.556 1.01643 99.3175 0.304396C98.0792 -0.407637 96.483 0.112695 95.74 1.42722L85.6953 20.7617C86.8236 21.1177 87.8694 21.6106 88.8326 22.2679Z" fill="#2B2A4C"/>
</g>
</g>
<defs>
<clipPath id="clip0_1557_4498">
<rect width="154" height="66" fill="white"/>
</clipPath>
</defs>
</svg>
