<svg width="48" height="49" viewBox="0 0 48 49" fill="none" xmlns="http://www.w3.org/2000/svg">
<path d="M23.5128 48.1259C36.4986 48.1259 47.0257 37.3526 47.0257 24.063C47.0257 10.7734 36.4986 0 23.5128 0C10.527 0 0 10.7734 0 24.063C0 37.3526 10.527 48.1259 23.5128 48.1259Z" fill="#2B2A4C"/>
<path d="M30.7667 14.9922C29.8004 14.9922 29.1562 15.6514 29.1562 16.6403C29.1562 17.6292 29.9615 18.2885 30.7667 18.2885C31.733 18.2885 32.3772 17.6292 32.3772 16.6403C32.3772 15.8163 31.733 14.9922 30.7667 14.9922Z" fill="#F0F5F9"/>
<path d="M23.678 17.1406C19.974 17.1406 16.9141 20.2721 16.9141 24.0628C16.9141 27.8536 19.974 30.9851 23.678 30.9851C27.3821 30.9851 30.442 27.8536 30.442 24.0628C30.442 20.2721 27.3821 17.1406 23.678 17.1406ZM23.678 28.5128C21.2623 28.5128 19.3298 26.5351 19.3298 24.0628C19.3298 21.5906 21.2623 19.6128 23.678 19.6128C26.0937 19.6128 28.0263 21.5906 28.0263 24.0628C28.0263 26.5351 26.0937 28.5128 23.678 28.5128Z" fill="#F0F5F9"/>
<path d="M28.9927 38.2373H18.0415C13.5322 38.2373 9.82812 34.4465 9.82812 29.8317V18.6243C9.82812 14.0095 13.5322 10.2188 18.0415 10.2188H28.9927C33.502 10.2188 37.2061 14.0095 37.2061 18.6243V29.6669C37.3671 34.4465 33.663 38.2373 28.9927 38.2373ZM18.0415 12.691C14.8206 12.691 12.4049 15.328 12.4049 18.4595V29.6669C12.4049 32.9632 14.9816 35.4354 18.0415 35.4354H28.9927C32.2136 35.4354 34.6293 32.7984 34.6293 29.6669V18.4595C34.6293 15.1632 32.0526 12.691 28.9927 12.691H18.0415Z" fill="#F0F5F9"/>
</svg>
