<svg width="48" height="49" viewBox="0 0 48 49" fill="none" xmlns="http://www.w3.org/2000/svg">
<path d="M23.5128 48.1259C36.4986 48.1259 47.0257 37.3526 47.0257 24.063C47.0257 10.7734 36.4986 0 23.5128 0C10.527 0 0 10.7734 0 24.063C0 37.3526 10.527 48.1259 23.5128 48.1259Z" fill="#2B2A4C"/>
<g clip-path="url(#clip0_89_367)">
<path d="M29.4626 21.7134L33.0423 25.2932C33.6232 25.8663 34.085 26.5487 34.401 27.3011C34.7171 28.0534 34.8812 28.8609 34.884 29.6769C34.8867 30.4929 34.728 31.3015 34.417 32.0559C34.1059 32.8104 33.6488 33.4958 33.0717 34.0729C32.4947 34.6499 31.8092 35.1071 31.0548 35.4181C30.3003 35.7291 29.4918 35.8878 28.6758 35.8851C27.8597 35.8824 27.0523 35.7182 26.3 35.4022C25.5476 35.0861 24.8652 34.6243 24.2921 34.0434L23.0996 32.8509C22.9383 32.6953 22.8097 32.5092 22.7211 32.3034C22.6326 32.0975 22.5859 31.8761 22.5839 31.6521C22.5818 31.428 22.6244 31.2058 22.7092 30.9983C22.7939 30.7909 22.9192 30.6024 23.0775 30.4439C23.2359 30.2854 23.4242 30.16 23.6316 30.0751C23.8389 29.9901 24.0611 29.9473 24.2852 29.9492C24.5093 29.951 24.7307 29.9974 24.9366 30.0858C25.1426 30.1741 25.3288 30.3026 25.4846 30.4637L26.6793 31.6573C27.2076 32.1809 27.9218 32.4738 28.6656 32.4721C29.4094 32.4704 30.1222 32.1741 30.6481 31.6481C31.1739 31.1221 31.47 30.4092 31.4715 29.6654C31.4731 28.9216 31.1799 28.2075 30.6562 27.6793L27.0764 24.0996C26.6895 23.7125 26.1981 23.4467 25.6623 23.3348C25.1266 23.2229 24.5698 23.2697 24.0603 23.4696C23.8781 23.5416 23.7093 23.6158 23.5496 23.6901L23.0276 23.9342C22.3301 24.2492 21.7934 24.3842 21.1106 23.7024C20.1296 22.7214 20.3838 21.8158 21.5797 20.9912C22.7711 20.1719 24.2118 19.7956 25.6517 19.9275C27.0916 20.0594 28.4399 20.6913 29.4626 21.7134ZM22.7013 14.9522L23.8938 16.1447C24.2014 16.4628 24.3717 16.889 24.368 17.3315C24.3644 17.7739 24.1871 18.1973 23.8744 18.5103C23.5617 18.8233 23.1385 19.001 22.696 19.005C22.2536 19.0091 21.8272 18.8392 21.5088 18.5319L20.3152 17.3394C20.0558 17.0707 19.7455 16.8564 19.4024 16.7089C19.0593 16.5614 18.6903 16.4837 18.3169 16.4804C17.9434 16.477 17.5731 16.5481 17.2274 16.6894C16.8817 16.8307 16.5676 17.0395 16.3035 17.3034C16.0393 17.5674 15.8304 17.8814 15.6889 18.227C15.5474 18.5726 15.4761 18.9429 15.4792 19.3164C15.4824 19.6898 15.5599 20.0589 15.7072 20.4021C15.8545 20.7453 16.0686 21.0557 16.3372 21.3152L19.9169 24.8949C20.3039 25.282 20.7953 25.5478 21.3311 25.6597C21.8668 25.7716 22.4235 25.7248 22.9331 25.5249C23.1153 25.4529 23.2841 25.3787 23.4438 25.3044L23.9658 25.0603C24.6633 24.7453 25.2011 24.6103 25.8828 25.2921C26.8638 26.2731 26.6096 27.1787 25.4137 28.0033C24.2223 28.8226 22.7816 29.1989 21.3417 29.067C19.9018 28.9351 18.5535 28.3032 17.5308 27.2811L13.9511 23.7013C13.3702 23.1282 12.9084 22.4458 12.5923 21.6934C12.2763 20.9411 12.1121 20.1336 12.1094 19.3176C12.1067 18.5016 12.2654 17.693 12.5764 16.9386C12.8874 16.1842 13.3446 15.4987 13.9217 14.9217C14.4987 14.3446 15.1842 13.8874 15.9386 13.5764C16.693 13.2654 17.5016 13.1067 18.3176 13.1094C19.1336 13.1121 19.9411 13.2763 20.6934 13.5923C21.4458 13.9084 22.1282 14.3713 22.7013 14.9522Z" fill="#F0F5F9"/>
</g>
<defs>
<clipPath id="clip0_89_367">
<rect width="27" height="27" fill="white" transform="translate(10 11)"/>
</clipPath>
</defs>
</svg>
