<svg width="27" height="24" viewBox="0 0 27 24" fill="none" xmlns="http://www.w3.org/2000/svg">
<path d="M16.3307 6.66927V4.0026C16.3307 3.29536 16.0498 2.61708 15.5497 2.11699C15.0496 1.61689 14.3713 1.33594 13.6641 1.33594H4.33073C3.62349 1.33594 2.94521 1.61689 2.44511 2.11699C1.94501 2.61708 1.66406 3.29536 1.66406 4.0026V20.0026C1.66406 20.7098 1.94501 21.3881 2.44511 21.8882C2.94521 22.3883 3.62349 22.6693 4.33073 22.6693H13.6641C14.3713 22.6693 15.0496 22.3883 15.5497 21.8882C16.0498 21.3881 16.3307 20.7098 16.3307 20.0026V17.3359" stroke="#2B2A4C" stroke-width="2" stroke-linecap="round" stroke-linejoin="round"/>
<path d="M9.66406 12H25.6641M25.6641 12L21.6641 8M25.6641 12L21.6641 16" stroke="#2B2A4C" stroke-width="2" stroke-linecap="round" stroke-linejoin="round"/>
</svg>
