<svg width="23" height="26" viewBox="0 0 23 26" fill="none" xmlns="http://www.w3.org/2000/svg">
<path d="M5.28906 25.5H8.28906V21H17.2891V18H8.28906V15H15.0391C19.1746 15 22.5391 11.6355 22.5391 7.5C22.5391 3.3645 19.1746 0 15.0391 0H6.78906C6.39124 0 6.00971 0.158036 5.7284 0.43934C5.4471 0.720645 5.28906 1.10218 5.28906 1.5V12H0.789062V15H5.28906V18H0.789062V21H5.28906V25.5ZM8.28906 3H15.0391C17.5201 3 19.5391 5.019 19.5391 7.5C19.5391 9.981 17.5201 12 15.0391 12H8.28906V3Z" fill="#2B2A4C"/>
</svg>
