<svg width="40" height="40" viewBox="0 0 40 40" fill="none" xmlns="http://www.w3.org/2000/svg">
<path d="M16 3.99771C12.8174 3.99771 9.76516 5.26199 7.51472 7.51243C5.26428 9.76287 4 12.8151 4 15.9977C4 19.1803 5.26428 22.2326 7.51472 24.483C9.76516 26.7334 12.8174 27.9977 16 27.9977C19.1826 27.9977 22.2348 26.7334 24.4853 24.483C26.7357 22.2326 28 19.1803 28 15.9977C28 12.8151 26.7357 9.76287 24.4853 7.51243C22.2348 5.26199 19.1826 3.99771 16 3.99771ZM9.88325e-08 15.9977C0.000364652 13.4514 0.608436 10.942 1.77368 8.678C2.93892 6.41398 4.62768 4.46077 6.69961 2.98068C8.77154 1.50059 11.1668 0.536379 13.6863 0.168172C16.2058 -0.200034 18.7768 0.0384017 21.1857 0.863663C23.5945 1.68892 25.7716 3.07718 27.536 4.91305C29.3004 6.74892 30.6012 8.97938 31.3302 11.4191C32.0592 13.8588 32.1954 16.4372 31.7275 18.9401C31.2596 21.443 30.2011 23.7981 28.64 25.8097L39.414 36.5837C39.7783 36.9609 39.9799 37.4661 39.9753 37.9905C39.9708 38.5149 39.7605 39.0165 39.3896 39.3873C39.0188 39.7582 38.5172 39.9685 37.9928 39.9731C37.4684 39.9776 36.9632 39.776 36.586 39.4117L25.812 28.6377C23.4469 30.4739 20.614 31.6096 17.6355 31.9157C14.657 32.2217 11.6524 31.6859 8.96329 30.3691C6.27421 29.0522 4.00858 27.0073 2.42405 24.4667C0.839518 21.9261 -0.000332641 18.9919 9.88325e-08 15.9977Z" fill="#2B2A4C"/>
</svg>
