<svg width="48" height="49" viewBox="0 0 48 49" fill="none" xmlns="http://www.w3.org/2000/svg">
<ellipse cx="24.3616" cy="24.065" rx="23.385" ry="24.065" fill="#2B2A4C"/>
<path d="M34.755 14.2662C34.755 14.2662 37.0214 13.3824 36.8326 15.5287C36.7696 16.4124 36.203 19.5056 35.7623 22.8512L34.2514 32.7619C34.2514 32.7619 34.1255 34.2137 32.9922 34.4663C31.859 34.7187 30.1592 33.5825 29.8444 33.33C29.5926 33.1406 25.1227 30.3 23.5488 28.9112C23.1081 28.5325 22.6044 27.775 23.6117 26.8912L30.2222 20.5787C30.9776 19.8212 31.7331 18.0537 28.5853 20.2L19.7714 26.1969C19.7714 26.1969 18.7641 26.8281 16.8754 26.26L12.7832 24.9975C12.7832 24.9975 11.2723 24.0506 13.8535 23.1037C20.1492 20.1368 27.8928 17.1068 34.755 14.2662Z" fill="#F0F5F9"/>
</svg>
