<svg width="48" height="49" viewBox="0 0 48 49" fill="none" xmlns="http://www.w3.org/2000/svg">
<path d="M23.5128 48.1259C36.4986 48.1259 47.0257 37.3526 47.0257 24.063C47.0257 10.7734 36.4986 0 23.5128 0C10.527 0 0 10.7734 0 24.063C0 37.3526 10.527 48.1259 23.5128 48.1259Z" fill="#2B2A4C"/>
<path d="M36.5578 15.8189C35.7525 16.1485 34.7863 16.4781 33.981 16.643C34.4642 16.643 34.9473 15.8189 35.2694 15.4893C35.5915 14.9948 35.9136 14.5004 36.0746 13.8411V13.6763H35.9136C34.9473 14.1707 33.981 14.6652 32.8537 14.83C32.6927 14.83 32.6927 14.83 32.6927 14.83C32.5316 14.6652 32.5316 14.6652 32.3706 14.5004C31.8874 14.1707 31.4043 13.8411 30.9211 13.5115C30.277 13.1818 29.4717 13.017 28.6665 13.1818C27.8613 13.1818 27.2171 13.5115 26.5729 13.8411C25.9287 14.1707 25.2845 14.6652 24.8014 15.3244C24.3182 15.9837 23.9961 16.643 23.8351 17.467C23.674 18.2911 23.674 18.9504 23.8351 19.7744C23.8351 19.9392 23.8351 19.9392 23.674 19.9392C19.4868 19.28 15.9438 17.7967 13.0449 14.5004C12.8839 14.3355 12.8839 14.3355 12.7229 14.5004C11.4345 16.4781 12.0787 19.4448 13.6891 20.9281C13.8502 21.093 14.1723 21.2578 14.3333 21.5874C14.1723 21.5874 13.206 21.4226 12.2397 20.9281C12.0787 20.9281 12.0787 20.9281 12.0787 21.093C12.0787 21.2578 12.0787 21.4226 12.0787 21.7522C12.2397 23.73 13.6891 25.5429 15.4607 26.2022C15.6217 26.367 15.9438 26.367 16.1048 26.367C15.6217 26.5318 15.2996 26.5318 14.1723 26.367C14.0112 26.367 14.0112 26.367 14.0112 26.5318C14.8165 29.0041 16.749 29.6633 18.1985 30.1578C18.3595 30.1578 18.5205 30.1578 18.8426 30.1578C18.3595 30.817 16.749 31.4763 15.9438 31.6411C14.4944 32.1355 13.0449 32.3004 11.5955 32.1355C11.4345 32.1355 11.2734 32.1355 11.2734 32.1355V32.3004C11.5955 32.4652 11.9176 32.63 12.2397 32.7948C13.206 33.2892 14.1723 33.7837 15.1386 33.9485C20.4531 35.4318 26.2508 34.2781 30.277 30.3226C33.3369 27.1911 34.4642 22.9059 34.4642 18.4559C34.4642 18.2911 34.6252 18.1263 34.7863 18.1263C35.5915 17.467 36.2357 16.8078 36.8799 15.9837C36.5578 16.1485 36.5578 15.9837 36.5578 15.8189Z" fill="#F0F5F9"/>
</svg>
