<svg width="19" height="36" viewBox="0 0 19 36" fill="none" xmlns="http://www.w3.org/2000/svg">
<path d="M19.0017 23.8058C19.0017 25.8549 18.3354 27.6194 17.0029 29.0993C15.6703 30.5792 13.9392 31.4933 11.8098 31.8415V35.3571C11.8098 35.5446 11.7495 35.6987 11.629 35.8192C11.5084 35.9397 11.3544 36 11.1669 36H8.45487C8.28076 36 8.13009 35.9364 8.00286 35.8092C7.87563 35.6819 7.81201 35.5312 7.81201 35.3571V31.8415C6.92808 31.721 6.07429 31.5134 5.25063 31.2188C4.42697 30.9241 3.74728 30.6261 3.21157 30.3248C2.67585 30.0234 2.18032 29.702 1.72496 29.3605C1.2696 29.019 0.958217 28.7679 0.790806 28.6071C0.623396 28.4464 0.506208 28.3259 0.439244 28.2455C0.211565 27.9643 0.198172 27.6897 0.399065 27.4219L2.46826 24.7098C2.56201 24.5759 2.71603 24.4955 2.93032 24.4688C3.13121 24.442 3.29192 24.5022 3.41246 24.6496L3.45264 24.6897C4.96603 26.0156 6.59326 26.8527 8.33433 27.2009C8.82987 27.308 9.3254 27.3616 9.82094 27.3616C10.9058 27.3616 11.86 27.0737 12.6837 26.4978C13.5073 25.9219 13.9192 25.1049 13.9192 24.0469C13.9192 23.6719 13.8187 23.317 13.6178 22.9821C13.4169 22.6473 13.1926 22.3661 12.9448 22.1384C12.6971 21.9107 12.3053 21.6596 11.7696 21.385C11.2339 21.1105 10.7919 20.8962 10.4437 20.7422C10.0955 20.5882 9.55978 20.3705 8.83657 20.0893C8.31424 19.875 7.90241 19.7076 7.60107 19.5871C7.29974 19.4665 6.8879 19.2891 6.36558 19.0547C5.84326 18.8203 5.42474 18.6127 5.11 18.4319C4.79527 18.2511 4.41692 18.0134 3.97496 17.7188C3.53299 17.4241 3.17473 17.1395 2.90018 16.865C2.62563 16.5904 2.33433 16.2623 2.0263 15.8806C1.71826 15.4989 1.48054 15.1105 1.31313 14.7154C1.14572 14.3203 1.00509 13.875 0.891253 13.3795C0.777413 12.8839 0.720494 12.3616 0.720494 11.8125C0.720494 9.96429 1.37674 8.34375 2.68924 6.95089C4.00174 5.55804 5.70933 4.66071 7.81201 4.25893V0.642857C7.81201 0.46875 7.87563 0.31808 8.00286 0.190848C8.13009 0.0636161 8.28076 0 8.45487 0H11.1669C11.3544 0 11.5084 0.0602679 11.629 0.180804C11.7495 0.301339 11.8098 0.455357 11.8098 0.642857V4.17857C12.5732 4.25893 13.3131 4.41295 14.0296 4.64062C14.7462 4.8683 15.3288 5.09263 15.7774 5.31362C16.2261 5.5346 16.6513 5.78571 17.0531 6.06696C17.4549 6.34821 17.716 6.54241 17.8366 6.64955C17.9571 6.7567 18.0575 6.85045 18.1379 6.9308C18.3656 7.17188 18.3991 7.42634 18.2383 7.6942L16.6111 10.6272C16.504 10.8281 16.35 10.9353 16.1491 10.9487C15.9616 10.9888 15.7808 10.942 15.6067 10.808C15.5665 10.7679 15.4694 10.6875 15.3154 10.567C15.1613 10.4464 14.9002 10.269 14.5319 10.0346C14.1636 9.80022 13.7718 9.58594 13.3567 9.39174C12.9415 9.19754 12.4426 9.02344 11.86 8.86942C11.2774 8.7154 10.7049 8.63839 10.1424 8.63839C8.87005 8.63839 7.8321 8.92634 7.02853 9.50223C6.22496 10.0781 5.82317 10.8214 5.82317 11.7321C5.82317 12.0804 5.88009 12.4018 5.99393 12.6964C6.10777 12.9911 6.30532 13.269 6.58657 13.5301C6.86782 13.7913 7.13232 14.0123 7.38009 14.1931C7.62786 14.3739 8.00286 14.5815 8.50509 14.8158C9.00732 15.0502 9.41246 15.231 9.72049 15.3583C10.0285 15.4855 10.4973 15.6696 11.1267 15.9107C11.8366 16.1786 12.379 16.3895 12.754 16.5435C13.129 16.6975 13.6379 16.9319 14.2808 17.2467C14.9236 17.5614 15.4292 17.846 15.7975 18.1004C16.1658 18.3549 16.581 18.6897 17.043 19.1049C17.5051 19.5201 17.86 19.9453 18.1078 20.3806C18.3555 20.8158 18.5665 21.3281 18.7406 21.9174C18.9147 22.5067 19.0017 23.1362 19.0017 23.8058Z" fill="#2B2A4C"/>
</svg>
