<svg width="47" height="49" viewBox="0 0 47 49" fill="none" xmlns="http://www.w3.org/2000/svg">
<ellipse cx="23.5881" cy="24.065" rx="23.385" ry="24.065" fill="#2B2A4C"/>
<path d="M20.8724 27.5026L26.9274 24.0026L20.8724 20.5026V27.5026ZM34.3591 18.3676C34.5107 18.9159 34.6157 19.6509 34.6857 20.5843C34.7674 21.5176 34.8024 22.3226 34.8024 23.0226L34.8724 24.0026C34.8724 26.5576 34.6857 28.4359 34.3591 29.6376C34.0674 30.6876 33.3907 31.3643 32.3407 31.6559C31.7924 31.8076 30.7891 31.9126 29.2491 31.9826C27.7324 32.0643 26.3441 32.0993 25.0607 32.0993L23.2057 32.1693C18.3174 32.1693 15.2724 31.9826 14.0707 31.6559C13.0207 31.3643 12.3441 30.6876 12.0524 29.6376C11.9007 29.0893 11.7957 28.3543 11.7257 27.4209C11.6441 26.4876 11.6091 25.6826 11.6091 24.9826L11.5391 24.0026C11.5391 21.4476 11.7257 19.5693 12.0524 18.3676C12.3441 17.3176 13.0207 16.6409 14.0707 16.3493C14.6191 16.1976 15.6224 16.0926 17.1624 16.0226C18.6791 15.9409 20.0674 15.9059 21.3507 15.9059L23.2057 15.8359C28.0941 15.8359 31.1391 16.0226 32.3407 16.3493C33.3907 16.6409 34.0674 17.3176 34.3591 18.3676Z" fill="#F0F5F9"/>
</svg>
